<mxfile host="Electron" agent="Mozilla/5.0 (X11; Linux x86_64) AppleWebKit/537.36 (KHTML, like Gecko) draw.io/27.0.9 Chrome/134.0.6998.205 Electron/35.4.0 Safari/537.36" version="27.0.9">
  <diagram name="Page-1" id="UCkdGVNELrZaK-pwxIwM">
    <mxGraphModel dx="1426" dy="843" grid="1" gridSize="10" guides="1" tooltips="1" connect="1" arrows="1" fold="1" page="1" pageScale="1" pageWidth="850" pageHeight="1100" math="0" shadow="0">
      <root>
        <mxCell id="0" />
        <mxCell id="1" parent="0" />
        <mxCell id="C_I3bQLbvZHztdQ1ggoD-3" value="" style="edgeStyle=orthogonalEdgeStyle;rounded=0;orthogonalLoop=1;jettySize=auto;html=1;curved=1;noEdgeStyle=1;fontSize=15;fontStyle=0;strokeColor=light-dark(#1212d3, #e0e0ff);fillColor=#dae8fc;strokeWidth=1;fontFamily=Times New Roman;" parent="1" source="C_I3bQLbvZHztdQ1ggoD-1" target="C_I3bQLbvZHztdQ1ggoD-2" edge="1">
          <mxGeometry relative="1" as="geometry" />
        </mxCell>
        <mxCell id="C_I3bQLbvZHztdQ1ggoD-1" value="Comprensión del negocio" style="rounded=1;whiteSpace=wrap;html=1;fontSize=15;fontStyle=0;strokeColor=light-dark(#1212d3, #e0e0ff);fillColor=#f5f5f5;fontColor=#333333;strokeWidth=1;fontFamily=Times New Roman;" parent="1" vertex="1">
          <mxGeometry x="300" y="50" width="210" height="60" as="geometry" />
        </mxCell>
        <mxCell id="C_I3bQLbvZHztdQ1ggoD-6" style="edgeStyle=orthogonalEdgeStyle;rounded=0;orthogonalLoop=1;jettySize=auto;html=1;curved=1;entryX=0.408;entryY=-0.067;entryDx=0;entryDy=0;noEdgeStyle=1;entryPerimeter=0;exitX=1;exitY=0.5;exitDx=0;exitDy=0;fontSize=15;fontStyle=0;strokeColor=light-dark(#1212d3, #e0e0ff);fillColor=#dae8fc;strokeWidth=1;fontFamily=Times New Roman;" parent="1" source="C_I3bQLbvZHztdQ1ggoD-2" target="C_I3bQLbvZHztdQ1ggoD-4" edge="1">
          <mxGeometry relative="1" as="geometry" />
        </mxCell>
        <mxCell id="C_I3bQLbvZHztdQ1ggoD-2" value="Comprensión de l&lt;span style=&quot;background-color: transparent; color: light-dark(rgb(0, 0, 0), rgb(255, 255, 255));&quot;&gt;os datos&lt;/span&gt;" style="rounded=1;whiteSpace=wrap;html=1;fontSize=15;fontStyle=0;strokeColor=light-dark(#1212d3, #e0e0ff);fillColor=#f5f5f5;fontColor=#333333;strokeWidth=1;fontFamily=Times New Roman;" parent="1" vertex="1">
          <mxGeometry x="600" y="50" width="220" height="60" as="geometry" />
        </mxCell>
        <mxCell id="C_I3bQLbvZHztdQ1ggoD-21" style="edgeStyle=orthogonalEdgeStyle;rounded=0;orthogonalLoop=1;jettySize=auto;html=1;exitX=0.5;exitY=1;exitDx=0;exitDy=0;curved=1;noEdgeStyle=1;entryX=0.5;entryY=0;entryDx=0;entryDy=0;fontSize=15;fontStyle=0;strokeColor=light-dark(#1212d3, #e0e0ff);fillColor=#dae8fc;strokeWidth=1;fontFamily=Times New Roman;" parent="1" source="C_I3bQLbvZHztdQ1ggoD-4" target="C_I3bQLbvZHztdQ1ggoD-7" edge="1">
          <mxGeometry relative="1" as="geometry">
            <mxPoint x="860" y="500" as="targetPoint" />
          </mxGeometry>
        </mxCell>
        <mxCell id="C_I3bQLbvZHztdQ1ggoD-35" style="rounded=0;orthogonalLoop=1;jettySize=auto;html=1;entryX=1;entryY=0.5;entryDx=0;entryDy=0;exitX=0;exitY=0.75;exitDx=0;exitDy=0;fontSize=15;fontStyle=0;strokeColor=light-dark(#1212d3, #e0e0ff);fillColor=#dae8fc;strokeWidth=1;fontFamily=Times New Roman;" parent="1" source="C_I3bQLbvZHztdQ1ggoD-4" target="C_I3bQLbvZHztdQ1ggoD-36" edge="1">
          <mxGeometry relative="1" as="geometry">
            <mxPoint x="720" y="240" as="targetPoint" />
          </mxGeometry>
        </mxCell>
        <mxCell id="C_I3bQLbvZHztdQ1ggoD-4" value="Preparación de los datos" style="rounded=1;whiteSpace=wrap;html=1;fillColor=#f5f5f5;strokeColor=#1212D3;fontSize=15;fontStyle=0;strokeWidth=1;fontFamily=Times New Roman;fontColor=#333333;" parent="1" vertex="1">
          <mxGeometry x="890" y="120" width="190" height="60" as="geometry" />
        </mxCell>
        <mxCell id="C_I3bQLbvZHztdQ1ggoD-20" style="edgeStyle=orthogonalEdgeStyle;rounded=0;orthogonalLoop=1;jettySize=auto;html=1;exitX=0.5;exitY=1;exitDx=0;exitDy=0;curved=1;noEdgeStyle=1;fontSize=15;fontStyle=0;strokeColor=light-dark(#1212d3, #e0e0ff);fillColor=#dae8fc;strokeWidth=1;fontFamily=Times New Roman;" parent="1" source="C_I3bQLbvZHztdQ1ggoD-7" target="C_I3bQLbvZHztdQ1ggoD-8" edge="1">
          <mxGeometry relative="1" as="geometry" />
        </mxCell>
        <mxCell id="C_I3bQLbvZHztdQ1ggoD-43" value="" style="rounded=0;orthogonalLoop=1;jettySize=auto;html=1;fontSize=15;fontStyle=0;strokeColor=light-dark(#1212d3, #e0e0ff);fillColor=#dae8fc;strokeWidth=1;fontFamily=Times New Roman;" parent="1" source="C_I3bQLbvZHztdQ1ggoD-7" target="C_I3bQLbvZHztdQ1ggoD-41" edge="1">
          <mxGeometry relative="1" as="geometry" />
        </mxCell>
        <mxCell id="C_I3bQLbvZHztdQ1ggoD-7" value="Modelado&amp;nbsp;&lt;span style=&quot;background-color: transparent; color: light-dark(rgb(0, 0, 0), rgb(255, 255, 255));&quot;&gt;centralizado&lt;/span&gt;" style="rounded=1;whiteSpace=wrap;html=1;fontSize=15;fontStyle=0;strokeColor=light-dark(#1212d3, #e0e0ff);fillColor=#f5f5f5;fontColor=#333333;strokeWidth=1;fontFamily=Times New Roman;" parent="1" vertex="1">
          <mxGeometry x="930" y="370" width="190" height="60" as="geometry" />
        </mxCell>
        <mxCell id="C_I3bQLbvZHztdQ1ggoD-22" style="edgeStyle=orthogonalEdgeStyle;rounded=0;orthogonalLoop=1;jettySize=auto;html=1;entryX=0.5;entryY=1;entryDx=0;entryDy=0;curved=1;exitX=0;exitY=0.5;exitDx=0;exitDy=0;noEdgeStyle=1;fontSize=15;fontStyle=0;strokeColor=light-dark(#1212d3, #e0e0ff);fillColor=#dae8fc;strokeWidth=1;fontFamily=Times New Roman;" parent="1" source="C_I3bQLbvZHztdQ1ggoD-8" target="C_I3bQLbvZHztdQ1ggoD-9" edge="1">
          <mxGeometry relative="1" as="geometry" />
        </mxCell>
        <mxCell id="C_I3bQLbvZHztdQ1ggoD-8" value="Evaluación centralizada" style="rounded=1;whiteSpace=wrap;html=1;fontSize=15;fontStyle=0;strokeColor=light-dark(#1212d3, #e0e0ff);fillColor=#f5f5f5;fontColor=#333333;strokeWidth=1;fontFamily=Times New Roman;" parent="1" vertex="1">
          <mxGeometry x="860" y="600" width="210" height="60" as="geometry" />
        </mxCell>
        <mxCell id="C_I3bQLbvZHztdQ1ggoD-9" value="Planificación de transición a Federated Learning" style="rounded=1;whiteSpace=wrap;html=1;fontSize=15;fontStyle=0;strokeColor=light-dark(#1212d3, #e0e0ff);fillColor=#f5f5f5;fontColor=#333333;strokeWidth=1;fontFamily=Times New Roman;" parent="1" vertex="1">
          <mxGeometry x="500" y="630" width="230" height="60" as="geometry" />
        </mxCell>
        <mxCell id="C_I3bQLbvZHztdQ1ggoD-30" style="edgeStyle=orthogonalEdgeStyle;rounded=0;orthogonalLoop=1;jettySize=auto;html=1;entryX=0.5;entryY=0;entryDx=0;entryDy=0;noEdgeStyle=1;fontSize=15;fontStyle=0;strokeColor=light-dark(#1212d3, #e0e0ff);fillColor=#dae8fc;strokeWidth=1;fontFamily=Times New Roman;" parent="1" source="C_I3bQLbvZHztdQ1ggoD-23" target="C_I3bQLbvZHztdQ1ggoD-25" edge="1">
          <mxGeometry relative="1" as="geometry" />
        </mxCell>
        <mxCell id="C_I3bQLbvZHztdQ1ggoD-45" style="rounded=0;orthogonalLoop=1;jettySize=auto;html=1;strokeColor=light-dark(#1212d3, #e0e0ff);fillColor=#dae8fc;strokeWidth=1;fontStyle=0;fontFamily=Times New Roman;" parent="1" source="C_I3bQLbvZHztdQ1ggoD-23" target="C_I3bQLbvZHztdQ1ggoD-44" edge="1">
          <mxGeometry relative="1" as="geometry" />
        </mxCell>
        <mxCell id="C_I3bQLbvZHztdQ1ggoD-47" style="rounded=0;orthogonalLoop=1;jettySize=auto;html=1;strokeColor=light-dark(#1212d3, #e0e0ff);fillColor=#dae8fc;strokeWidth=1;fontStyle=0;fontFamily=Times New Roman;" parent="1" source="C_I3bQLbvZHztdQ1ggoD-23" target="C_I3bQLbvZHztdQ1ggoD-46" edge="1">
          <mxGeometry relative="1" as="geometry" />
        </mxCell>
        <mxCell id="C_I3bQLbvZHztdQ1ggoD-23" value="Modelado&amp;nbsp;&lt;span style=&quot;background-color: transparent; color: light-dark(rgb(0, 0, 0), rgb(255, 255, 255));&quot;&gt;federado&lt;/span&gt;" style="rounded=1;whiteSpace=wrap;html=1;fontSize=15;fontStyle=0;strokeColor=light-dark(#1212d3, #e0e0ff);fillColor=#f5f5f5;fontColor=#333333;strokeWidth=1;fontFamily=Times New Roman;" parent="1" vertex="1">
          <mxGeometry x="210" y="610" width="180" height="60" as="geometry" />
        </mxCell>
        <mxCell id="C_I3bQLbvZHztdQ1ggoD-24" style="edgeStyle=orthogonalEdgeStyle;rounded=0;orthogonalLoop=1;jettySize=auto;html=1;curved=1;exitX=0;exitY=0.5;exitDx=0;exitDy=0;noEdgeStyle=1;entryX=1;entryY=0.5;entryDx=0;entryDy=0;fontSize=15;fontStyle=0;strokeColor=light-dark(#1212d3, #e0e0ff);fillColor=#dae8fc;strokeWidth=1;fontFamily=Times New Roman;" parent="1" source="C_I3bQLbvZHztdQ1ggoD-9" target="C_I3bQLbvZHztdQ1ggoD-23" edge="1">
          <mxGeometry relative="1" as="geometry">
            <mxPoint x="230" y="115" as="sourcePoint" />
            <mxPoint x="340" y="740" as="targetPoint" />
          </mxGeometry>
        </mxCell>
        <mxCell id="C_I3bQLbvZHztdQ1ggoD-31" style="edgeStyle=orthogonalEdgeStyle;rounded=0;orthogonalLoop=1;jettySize=auto;html=1;entryX=0.5;entryY=1;entryDx=0;entryDy=0;noEdgeStyle=1;fontSize=15;fontStyle=0;strokeColor=light-dark(#1212d3, #e0e0ff);fillColor=#dae8fc;strokeWidth=1;fontFamily=Times New Roman;" parent="1" source="C_I3bQLbvZHztdQ1ggoD-25" target="C_I3bQLbvZHztdQ1ggoD-26" edge="1">
          <mxGeometry relative="1" as="geometry" />
        </mxCell>
        <mxCell id="C_I3bQLbvZHztdQ1ggoD-25" value="Evaluación federada" style="rounded=1;whiteSpace=wrap;html=1;fontSize=15;fontStyle=0;strokeColor=light-dark(#1212d3, #e0e0ff);fillColor=#f5f5f5;fontColor=#333333;strokeWidth=1;fontFamily=Times New Roman;" parent="1" vertex="1">
          <mxGeometry x="79" y="510" width="191" height="60" as="geometry" />
        </mxCell>
        <mxCell id="C_I3bQLbvZHztdQ1ggoD-26" value="Despliegue" style="rounded=1;whiteSpace=wrap;html=1;fontSize=15;fontStyle=0;strokeColor=light-dark(#1212d3, #e0e0ff);fillColor=#f5f5f5;fontColor=#333333;strokeWidth=1;fontFamily=Times New Roman;" parent="1" vertex="1">
          <mxGeometry x="60" y="340" width="120" height="60" as="geometry" />
        </mxCell>
        <mxCell id="C_I3bQLbvZHztdQ1ggoD-27" value="Mantenimiento" style="rounded=1;whiteSpace=wrap;html=1;fontSize=15;fontStyle=0;strokeColor=light-dark(#1212d3, #e0e0ff);fillColor=#f5f5f5;fontColor=#333333;strokeWidth=1;fontFamily=Times New Roman;" parent="1" vertex="1">
          <mxGeometry x="120" y="180" width="170" height="60" as="geometry" />
        </mxCell>
        <mxCell id="C_I3bQLbvZHztdQ1ggoD-32" style="edgeStyle=orthogonalEdgeStyle;rounded=0;orthogonalLoop=1;jettySize=auto;html=1;entryX=0.5;entryY=1;entryDx=0;entryDy=0;noEdgeStyle=1;fontSize=15;fontStyle=0;strokeColor=light-dark(#1212d3, #e0e0ff);fillColor=#dae8fc;strokeWidth=1;fontFamily=Times New Roman;" parent="1" source="C_I3bQLbvZHztdQ1ggoD-26" target="C_I3bQLbvZHztdQ1ggoD-27" edge="1">
          <mxGeometry relative="1" as="geometry" />
        </mxCell>
        <mxCell id="C_I3bQLbvZHztdQ1ggoD-36" value="80% entrenamiento" style="rounded=1;whiteSpace=wrap;html=1;fillColor=#f5f5f5;strokeColor=#1212D3;fontSize=15;fontStyle=0;strokeWidth=1;fontFamily=Times New Roman;fontColor=#333333;" parent="1" vertex="1">
          <mxGeometry x="580" y="200" width="180" height="60" as="geometry" />
        </mxCell>
        <mxCell id="C_I3bQLbvZHztdQ1ggoD-39" value="20% evaluación" style="rounded=1;whiteSpace=wrap;html=1;fillColor=#f5f5f5;strokeColor=#1212D3;fontSize=15;fontStyle=0;strokeWidth=1;fontFamily=Times New Roman;fontColor=#333333;" parent="1" vertex="1">
          <mxGeometry x="760" y="280" width="160" height="60" as="geometry" />
        </mxCell>
        <mxCell id="C_I3bQLbvZHztdQ1ggoD-40" style="rounded=0;orthogonalLoop=1;jettySize=auto;html=1;entryX=0.539;entryY=0.033;entryDx=0;entryDy=0;exitX=0.25;exitY=1;exitDx=0;exitDy=0;entryPerimeter=0;fontSize=15;fontStyle=0;strokeColor=light-dark(#1212d3, #e0e0ff);fillColor=#dae8fc;strokeWidth=1;fontFamily=Times New Roman;" parent="1" source="C_I3bQLbvZHztdQ1ggoD-4" target="C_I3bQLbvZHztdQ1ggoD-39" edge="1">
          <mxGeometry relative="1" as="geometry">
            <mxPoint x="800" y="280" as="targetPoint" />
            <mxPoint x="934" y="230" as="sourcePoint" />
          </mxGeometry>
        </mxCell>
        <mxCell id="C_I3bQLbvZHztdQ1ggoD-41" value="EfficientNet-B3" style="rounded=1;whiteSpace=wrap;html=1;fontSize=15;fontStyle=0;strokeColor=light-dark(#1212d3, #e0e0ff);fillColor=#f5f5f5;fontColor=#333333;strokeWidth=1;fontFamily=Times New Roman;" parent="1" vertex="1">
          <mxGeometry x="700" y="440" width="180" height="60" as="geometry" />
        </mxCell>
        <mxCell id="C_I3bQLbvZHztdQ1ggoD-44" value="FedAvg" style="rounded=1;whiteSpace=wrap;html=1;fontSize=15;fontStyle=0;strokeColor=light-dark(#1212d3, #e0e0ff);fillColor=#f5f5f5;fontColor=#333333;strokeWidth=1;fontFamily=Times New Roman;" parent="1" vertex="1">
          <mxGeometry x="450" y="510" width="180" height="60" as="geometry" />
        </mxCell>
        <mxCell id="C_I3bQLbvZHztdQ1ggoD-46" value="EfficientNet-B0" style="rounded=1;whiteSpace=wrap;html=1;fontSize=15;fontStyle=0;strokeColor=light-dark(#1212d3, #e0e0ff);fillColor=#f5f5f5;fontColor=#333333;strokeWidth=1;fontFamily=Times New Roman;" parent="1" vertex="1">
          <mxGeometry x="280" y="430" width="180" height="60" as="geometry" />
        </mxCell>
      </root>
    </mxGraphModel>
  </diagram>
</mxfile>
